M48
;GenerationSoftware,Autodesk,EAGLE,9.6.2*%
;CreationDate,2020-11-28T20:53:47Z*%
FMAT,2
ICI,OFF
METRIC,TZ,000.000
T3C0.350
T2C1.000
T1C1.016
%
G90
M71
T1
X36830Y80010
X36830Y77470
X36830Y74930
X31750Y86360
X29210Y86360
X26670Y86360
X24130Y86360
X15240Y90170
X12700Y90170
X10160Y90170
X7620Y90170
X31750Y90170
X29210Y90170
X26670Y90170
X24130Y90170
X15240Y86360
X12700Y86360
X10160Y86360
X7620Y86360
T2
X34290Y13970
X34290Y16510
X34290Y19050
X34290Y21590
X34290Y24130
X34290Y26670
X34290Y29210
X34290Y31750
X34290Y34290
X34290Y36830
X34290Y39370
X34290Y41910
X34290Y44450
X34290Y46990
X34290Y49530
X15240Y78740
X15240Y76200
X15240Y73660
X15240Y71120
X15240Y68580
X15240Y66040
X5080Y78740
X5080Y76200
X5080Y73660
X5080Y71120
X5080Y68580
X5080Y66040
X6350Y13970
X6350Y16510
X6350Y19050
X6350Y21590
X6350Y24130
X6350Y26670
X6350Y29210
X6350Y31750
X6350Y34290
X6350Y36830
X6350Y39370
X6350Y41910
X6350Y44450
X6350Y46990
X6350Y49530
T3
X38100Y2540
X2540Y2540
X38100Y87630
X2540Y87630
M30