G04 EAGLE Gerber RS-274X export*
G75*
%MOMM*%
%FSLAX34Y34*%
%LPD*%
%INSolder stop mask SOL*%
%IPPOS*%
%AMOC8*
5,1,8,0,0,1.08239X$1,22.5*%
G01*
%ADD10C,0.553200*%
%ADD11C,1.879600*%
%ADD12R,1.711200X1.711200*%
%ADD13C,1.711200*%
%ADD14C,1.727200*%


D10*
X25400Y876300D03*
X381000Y876300D03*
X25400Y25400D03*
X381000Y25400D03*
D11*
X71882Y495300D02*
X55118Y495300D01*
X55118Y469900D02*
X71882Y469900D01*
X71882Y444500D02*
X55118Y444500D01*
X55118Y419100D02*
X71882Y419100D01*
X71882Y393700D02*
X55118Y393700D01*
X55118Y368300D02*
X71882Y368300D01*
X71882Y342900D02*
X55118Y342900D01*
X55118Y317500D02*
X71882Y317500D01*
X71882Y292100D02*
X55118Y292100D01*
X55118Y266700D02*
X71882Y266700D01*
X71882Y241300D02*
X55118Y241300D01*
X55118Y215900D02*
X71882Y215900D01*
X71882Y190500D02*
X55118Y190500D01*
X55118Y165100D02*
X71882Y165100D01*
X71882Y139700D02*
X55118Y139700D01*
X334518Y139700D02*
X351282Y139700D01*
X351282Y165100D02*
X334518Y165100D01*
X334518Y190500D02*
X351282Y190500D01*
X351282Y215900D02*
X334518Y215900D01*
X334518Y241300D02*
X351282Y241300D01*
X351282Y266700D02*
X334518Y266700D01*
X334518Y292100D02*
X351282Y292100D01*
X351282Y317500D02*
X334518Y317500D01*
X334518Y342900D02*
X351282Y342900D01*
X351282Y368300D02*
X334518Y368300D01*
X334518Y393700D02*
X351282Y393700D01*
X351282Y419100D02*
X334518Y419100D01*
X334518Y444500D02*
X351282Y444500D01*
X351282Y469900D02*
X334518Y469900D01*
X334518Y495300D02*
X351282Y495300D01*
D12*
X152400Y787400D03*
D13*
X152400Y762000D03*
X152400Y736600D03*
X152400Y711200D03*
X152400Y685800D03*
X152400Y660400D03*
D12*
X50800Y787400D03*
D13*
X50800Y762000D03*
X50800Y736600D03*
X50800Y711200D03*
X50800Y685800D03*
X50800Y660400D03*
D14*
X76200Y855980D02*
X76200Y871220D01*
X101600Y871220D02*
X101600Y855980D01*
X127000Y855980D02*
X127000Y871220D01*
X152400Y871220D02*
X152400Y855980D01*
X241300Y894080D02*
X241300Y909320D01*
X266700Y909320D02*
X266700Y894080D01*
X292100Y894080D02*
X292100Y909320D01*
X317500Y909320D02*
X317500Y894080D01*
X76200Y894080D02*
X76200Y909320D01*
X101600Y909320D02*
X101600Y894080D01*
X127000Y894080D02*
X127000Y909320D01*
X152400Y909320D02*
X152400Y894080D01*
X241300Y871220D02*
X241300Y855980D01*
X266700Y855980D02*
X266700Y871220D01*
X292100Y871220D02*
X292100Y855980D01*
X317500Y855980D02*
X317500Y871220D01*
X360680Y749300D02*
X375920Y749300D01*
X375920Y774700D02*
X360680Y774700D01*
X360680Y800100D02*
X375920Y800100D01*
M02*
