G04 EAGLE Gerber RS-274X export*
G75*
%MOMM*%
%FSLAX34Y34*%
%LPD*%
%INSilk screen SOL*%
%IPPOS*%
%AMOC8*
5,1,8,0,0,1.08239X$1,22.5*%
G01*
%ADD10C,0.000000*%


D10*
X0Y0D02*
X403100Y0D01*
X403100Y939700D01*
X0Y939700D01*
X0Y0D01*
X23650Y876300D02*
X23652Y876383D01*
X23658Y876466D01*
X23668Y876549D01*
X23682Y876631D01*
X23699Y876713D01*
X23721Y876793D01*
X23746Y876872D01*
X23775Y876950D01*
X23808Y877027D01*
X23845Y877102D01*
X23884Y877175D01*
X23928Y877246D01*
X23974Y877315D01*
X24024Y877382D01*
X24077Y877446D01*
X24133Y877508D01*
X24192Y877567D01*
X24254Y877623D01*
X24318Y877676D01*
X24385Y877726D01*
X24454Y877772D01*
X24525Y877816D01*
X24598Y877855D01*
X24673Y877892D01*
X24750Y877925D01*
X24828Y877954D01*
X24907Y877979D01*
X24987Y878001D01*
X25069Y878018D01*
X25151Y878032D01*
X25234Y878042D01*
X25317Y878048D01*
X25400Y878050D01*
X25483Y878048D01*
X25566Y878042D01*
X25649Y878032D01*
X25731Y878018D01*
X25813Y878001D01*
X25893Y877979D01*
X25972Y877954D01*
X26050Y877925D01*
X26127Y877892D01*
X26202Y877855D01*
X26275Y877816D01*
X26346Y877772D01*
X26415Y877726D01*
X26482Y877676D01*
X26546Y877623D01*
X26608Y877567D01*
X26667Y877508D01*
X26723Y877446D01*
X26776Y877382D01*
X26826Y877315D01*
X26872Y877246D01*
X26916Y877175D01*
X26955Y877102D01*
X26992Y877027D01*
X27025Y876950D01*
X27054Y876872D01*
X27079Y876793D01*
X27101Y876713D01*
X27118Y876631D01*
X27132Y876549D01*
X27142Y876466D01*
X27148Y876383D01*
X27150Y876300D01*
X27148Y876217D01*
X27142Y876134D01*
X27132Y876051D01*
X27118Y875969D01*
X27101Y875887D01*
X27079Y875807D01*
X27054Y875728D01*
X27025Y875650D01*
X26992Y875573D01*
X26955Y875498D01*
X26916Y875425D01*
X26872Y875354D01*
X26826Y875285D01*
X26776Y875218D01*
X26723Y875154D01*
X26667Y875092D01*
X26608Y875033D01*
X26546Y874977D01*
X26482Y874924D01*
X26415Y874874D01*
X26346Y874828D01*
X26275Y874784D01*
X26202Y874745D01*
X26127Y874708D01*
X26050Y874675D01*
X25972Y874646D01*
X25893Y874621D01*
X25813Y874599D01*
X25731Y874582D01*
X25649Y874568D01*
X25566Y874558D01*
X25483Y874552D01*
X25400Y874550D01*
X25317Y874552D01*
X25234Y874558D01*
X25151Y874568D01*
X25069Y874582D01*
X24987Y874599D01*
X24907Y874621D01*
X24828Y874646D01*
X24750Y874675D01*
X24673Y874708D01*
X24598Y874745D01*
X24525Y874784D01*
X24454Y874828D01*
X24385Y874874D01*
X24318Y874924D01*
X24254Y874977D01*
X24192Y875033D01*
X24133Y875092D01*
X24077Y875154D01*
X24024Y875218D01*
X23974Y875285D01*
X23928Y875354D01*
X23884Y875425D01*
X23845Y875498D01*
X23808Y875573D01*
X23775Y875650D01*
X23746Y875728D01*
X23721Y875807D01*
X23699Y875887D01*
X23682Y875969D01*
X23668Y876051D01*
X23658Y876134D01*
X23652Y876217D01*
X23650Y876300D01*
X379250Y876300D02*
X379252Y876383D01*
X379258Y876466D01*
X379268Y876549D01*
X379282Y876631D01*
X379299Y876713D01*
X379321Y876793D01*
X379346Y876872D01*
X379375Y876950D01*
X379408Y877027D01*
X379445Y877102D01*
X379484Y877175D01*
X379528Y877246D01*
X379574Y877315D01*
X379624Y877382D01*
X379677Y877446D01*
X379733Y877508D01*
X379792Y877567D01*
X379854Y877623D01*
X379918Y877676D01*
X379985Y877726D01*
X380054Y877772D01*
X380125Y877816D01*
X380198Y877855D01*
X380273Y877892D01*
X380350Y877925D01*
X380428Y877954D01*
X380507Y877979D01*
X380587Y878001D01*
X380669Y878018D01*
X380751Y878032D01*
X380834Y878042D01*
X380917Y878048D01*
X381000Y878050D01*
X381083Y878048D01*
X381166Y878042D01*
X381249Y878032D01*
X381331Y878018D01*
X381413Y878001D01*
X381493Y877979D01*
X381572Y877954D01*
X381650Y877925D01*
X381727Y877892D01*
X381802Y877855D01*
X381875Y877816D01*
X381946Y877772D01*
X382015Y877726D01*
X382082Y877676D01*
X382146Y877623D01*
X382208Y877567D01*
X382267Y877508D01*
X382323Y877446D01*
X382376Y877382D01*
X382426Y877315D01*
X382472Y877246D01*
X382516Y877175D01*
X382555Y877102D01*
X382592Y877027D01*
X382625Y876950D01*
X382654Y876872D01*
X382679Y876793D01*
X382701Y876713D01*
X382718Y876631D01*
X382732Y876549D01*
X382742Y876466D01*
X382748Y876383D01*
X382750Y876300D01*
X382748Y876217D01*
X382742Y876134D01*
X382732Y876051D01*
X382718Y875969D01*
X382701Y875887D01*
X382679Y875807D01*
X382654Y875728D01*
X382625Y875650D01*
X382592Y875573D01*
X382555Y875498D01*
X382516Y875425D01*
X382472Y875354D01*
X382426Y875285D01*
X382376Y875218D01*
X382323Y875154D01*
X382267Y875092D01*
X382208Y875033D01*
X382146Y874977D01*
X382082Y874924D01*
X382015Y874874D01*
X381946Y874828D01*
X381875Y874784D01*
X381802Y874745D01*
X381727Y874708D01*
X381650Y874675D01*
X381572Y874646D01*
X381493Y874621D01*
X381413Y874599D01*
X381331Y874582D01*
X381249Y874568D01*
X381166Y874558D01*
X381083Y874552D01*
X381000Y874550D01*
X380917Y874552D01*
X380834Y874558D01*
X380751Y874568D01*
X380669Y874582D01*
X380587Y874599D01*
X380507Y874621D01*
X380428Y874646D01*
X380350Y874675D01*
X380273Y874708D01*
X380198Y874745D01*
X380125Y874784D01*
X380054Y874828D01*
X379985Y874874D01*
X379918Y874924D01*
X379854Y874977D01*
X379792Y875033D01*
X379733Y875092D01*
X379677Y875154D01*
X379624Y875218D01*
X379574Y875285D01*
X379528Y875354D01*
X379484Y875425D01*
X379445Y875498D01*
X379408Y875573D01*
X379375Y875650D01*
X379346Y875728D01*
X379321Y875807D01*
X379299Y875887D01*
X379282Y875969D01*
X379268Y876051D01*
X379258Y876134D01*
X379252Y876217D01*
X379250Y876300D01*
X23650Y25400D02*
X23652Y25483D01*
X23658Y25566D01*
X23668Y25649D01*
X23682Y25731D01*
X23699Y25813D01*
X23721Y25893D01*
X23746Y25972D01*
X23775Y26050D01*
X23808Y26127D01*
X23845Y26202D01*
X23884Y26275D01*
X23928Y26346D01*
X23974Y26415D01*
X24024Y26482D01*
X24077Y26546D01*
X24133Y26608D01*
X24192Y26667D01*
X24254Y26723D01*
X24318Y26776D01*
X24385Y26826D01*
X24454Y26872D01*
X24525Y26916D01*
X24598Y26955D01*
X24673Y26992D01*
X24750Y27025D01*
X24828Y27054D01*
X24907Y27079D01*
X24987Y27101D01*
X25069Y27118D01*
X25151Y27132D01*
X25234Y27142D01*
X25317Y27148D01*
X25400Y27150D01*
X25483Y27148D01*
X25566Y27142D01*
X25649Y27132D01*
X25731Y27118D01*
X25813Y27101D01*
X25893Y27079D01*
X25972Y27054D01*
X26050Y27025D01*
X26127Y26992D01*
X26202Y26955D01*
X26275Y26916D01*
X26346Y26872D01*
X26415Y26826D01*
X26482Y26776D01*
X26546Y26723D01*
X26608Y26667D01*
X26667Y26608D01*
X26723Y26546D01*
X26776Y26482D01*
X26826Y26415D01*
X26872Y26346D01*
X26916Y26275D01*
X26955Y26202D01*
X26992Y26127D01*
X27025Y26050D01*
X27054Y25972D01*
X27079Y25893D01*
X27101Y25813D01*
X27118Y25731D01*
X27132Y25649D01*
X27142Y25566D01*
X27148Y25483D01*
X27150Y25400D01*
X27148Y25317D01*
X27142Y25234D01*
X27132Y25151D01*
X27118Y25069D01*
X27101Y24987D01*
X27079Y24907D01*
X27054Y24828D01*
X27025Y24750D01*
X26992Y24673D01*
X26955Y24598D01*
X26916Y24525D01*
X26872Y24454D01*
X26826Y24385D01*
X26776Y24318D01*
X26723Y24254D01*
X26667Y24192D01*
X26608Y24133D01*
X26546Y24077D01*
X26482Y24024D01*
X26415Y23974D01*
X26346Y23928D01*
X26275Y23884D01*
X26202Y23845D01*
X26127Y23808D01*
X26050Y23775D01*
X25972Y23746D01*
X25893Y23721D01*
X25813Y23699D01*
X25731Y23682D01*
X25649Y23668D01*
X25566Y23658D01*
X25483Y23652D01*
X25400Y23650D01*
X25317Y23652D01*
X25234Y23658D01*
X25151Y23668D01*
X25069Y23682D01*
X24987Y23699D01*
X24907Y23721D01*
X24828Y23746D01*
X24750Y23775D01*
X24673Y23808D01*
X24598Y23845D01*
X24525Y23884D01*
X24454Y23928D01*
X24385Y23974D01*
X24318Y24024D01*
X24254Y24077D01*
X24192Y24133D01*
X24133Y24192D01*
X24077Y24254D01*
X24024Y24318D01*
X23974Y24385D01*
X23928Y24454D01*
X23884Y24525D01*
X23845Y24598D01*
X23808Y24673D01*
X23775Y24750D01*
X23746Y24828D01*
X23721Y24907D01*
X23699Y24987D01*
X23682Y25069D01*
X23668Y25151D01*
X23658Y25234D01*
X23652Y25317D01*
X23650Y25400D01*
X379250Y25400D02*
X379252Y25483D01*
X379258Y25566D01*
X379268Y25649D01*
X379282Y25731D01*
X379299Y25813D01*
X379321Y25893D01*
X379346Y25972D01*
X379375Y26050D01*
X379408Y26127D01*
X379445Y26202D01*
X379484Y26275D01*
X379528Y26346D01*
X379574Y26415D01*
X379624Y26482D01*
X379677Y26546D01*
X379733Y26608D01*
X379792Y26667D01*
X379854Y26723D01*
X379918Y26776D01*
X379985Y26826D01*
X380054Y26872D01*
X380125Y26916D01*
X380198Y26955D01*
X380273Y26992D01*
X380350Y27025D01*
X380428Y27054D01*
X380507Y27079D01*
X380587Y27101D01*
X380669Y27118D01*
X380751Y27132D01*
X380834Y27142D01*
X380917Y27148D01*
X381000Y27150D01*
X381083Y27148D01*
X381166Y27142D01*
X381249Y27132D01*
X381331Y27118D01*
X381413Y27101D01*
X381493Y27079D01*
X381572Y27054D01*
X381650Y27025D01*
X381727Y26992D01*
X381802Y26955D01*
X381875Y26916D01*
X381946Y26872D01*
X382015Y26826D01*
X382082Y26776D01*
X382146Y26723D01*
X382208Y26667D01*
X382267Y26608D01*
X382323Y26546D01*
X382376Y26482D01*
X382426Y26415D01*
X382472Y26346D01*
X382516Y26275D01*
X382555Y26202D01*
X382592Y26127D01*
X382625Y26050D01*
X382654Y25972D01*
X382679Y25893D01*
X382701Y25813D01*
X382718Y25731D01*
X382732Y25649D01*
X382742Y25566D01*
X382748Y25483D01*
X382750Y25400D01*
X382748Y25317D01*
X382742Y25234D01*
X382732Y25151D01*
X382718Y25069D01*
X382701Y24987D01*
X382679Y24907D01*
X382654Y24828D01*
X382625Y24750D01*
X382592Y24673D01*
X382555Y24598D01*
X382516Y24525D01*
X382472Y24454D01*
X382426Y24385D01*
X382376Y24318D01*
X382323Y24254D01*
X382267Y24192D01*
X382208Y24133D01*
X382146Y24077D01*
X382082Y24024D01*
X382015Y23974D01*
X381946Y23928D01*
X381875Y23884D01*
X381802Y23845D01*
X381727Y23808D01*
X381650Y23775D01*
X381572Y23746D01*
X381493Y23721D01*
X381413Y23699D01*
X381331Y23682D01*
X381249Y23668D01*
X381166Y23658D01*
X381083Y23652D01*
X381000Y23650D01*
X380917Y23652D01*
X380834Y23658D01*
X380751Y23668D01*
X380669Y23682D01*
X380587Y23699D01*
X380507Y23721D01*
X380428Y23746D01*
X380350Y23775D01*
X380273Y23808D01*
X380198Y23845D01*
X380125Y23884D01*
X380054Y23928D01*
X379985Y23974D01*
X379918Y24024D01*
X379854Y24077D01*
X379792Y24133D01*
X379733Y24192D01*
X379677Y24254D01*
X379624Y24318D01*
X379574Y24385D01*
X379528Y24454D01*
X379484Y24525D01*
X379445Y24598D01*
X379408Y24673D01*
X379375Y24750D01*
X379346Y24828D01*
X379321Y24907D01*
X379299Y24987D01*
X379282Y25069D01*
X379268Y25151D01*
X379258Y25234D01*
X379252Y25317D01*
X379250Y25400D01*
M02*
